<svg enable-background="new 0 0 16 16" viewBox="0 0 16 16" xmlns="http://www.w3.org/2000/svg"><g fill="#fff"><path d="m3.5 10.2h-3.5v-4.4h.6v3.8h2.9z"/><path d="m7.4 8c0 .6-.2 1.2-.5 1.6-.4.4-.8.7-1.5.7-.5 0-1-.3-1.4-.7-.3-.4-.5-1-.5-1.6s.2-1.2.5-1.6c.4-.4.9-.6 1.5-.6s1.1.2 1.5.7c.3.3.4.9.4 1.5zm-.6 0c0-.5-.1-.9-.4-1.2-.2-.3-.6-.4-1-.4s-.7.1-1 .4c-.1.3-.2.7-.2 1.2s.1.9.4 1.2c.2.3.6.5 1 .5s.7-.2 1-.5c.1-.3.2-.7.2-1.2z"/><path d="m11.7 10.2h-.6v-.4c-.3.3-.7.5-1.2.5-.6 0-1.1-.2-1.4-.6-.5-.4-.6-1-.6-1.6 0-.7.2-1.3.6-1.7s.9-.7 1.4-.7c.8 0 1.4.4 1.8 1.1l-.6.2c-.2-.5-.6-.8-1.2-.8-.4 0-.7.1-1 .4-.2.5-.4.9-.4 1.5 0 .5.1.9.4 1.2.2.3.6.4.9.4s.6-.1.8-.2c.3-.2.4-.6.4-1h-1v-.7h1.8v2.4z"/><path d="m16 8c0 .6-.2 1.2-.5 1.6-.4.4-.8.7-1.5.7-.6 0-1.1-.2-1.5-.7-.3-.4-.5-.9-.5-1.6 0-.6.2-1.2.5-1.6.4-.4.9-.6 1.5-.6s1.1.2 1.5.7c.3.3.5.9.5 1.5zm-.6 0c0-.5-.1-.9-.4-1.2-.2-.3-.6-.4-1-.4s-.7.1-1 .4c-.2.3-.4.7-.4 1.2s.1.9.4 1.2c.2.3.6.5 1 .5s.7-.2 1-.5c.2-.3.4-.7.4-1.2z"/></g></svg>