<svg height="200" viewBox="0 0 1024 1024" width="200" xmlns="http://www.w3.org/2000/svg"><path d="m358.83783384 510.28569577q95.89575053 0 95.89575053 95.89575053v174.35528015q0 95.89575053-95.89575053 95.8957498-95.89575053 0-95.89575053-95.8957498v-174.35528015q0-95.89575053 95.89575053-95.89575052z" fill="#ace6ff"/><path d="m318.04544946 301.38257121c211.45932817-64.94222764 454.35610579-147.87288816 454.3561065-147.87288744v662.55461632s-256.16271439-75.04334101-467.63688744-134.75143638-198.17755786-314.98905353 13.28078094-379.9302925z" fill="#27a9e0"/><path d="m681.40643308 484.78600184a331.2763188 95.89575053 90 1 0 191.79150105 0 331.2763188 95.89575053 90 1 0 -191.79150105 0z" fill="#ace6ff"/><path d="m703.17622627 484.78600184a315.44230237 78.08248182 90 1 0 156.16496434 0 315.44230237 78.08248182 90 1 0 -156.16496434 0z" fill="#fff"/></svg>