<svg height="200" viewBox="0 0 1026 1024" width="200.390625" xmlns="http://www.w3.org/2000/svg"><path d="m513.03147943 213.52648715c38.78361887 0 70.14058648 31.35696844 70.14058649 70.1405873v192.88661326c0 38.78361887-31.35696844 70.14058648-70.14058649 70.14058731s-70.14058648-31.35696844-70.14058731-70.14058731v-192.88661325c0-38.78361887 31.35696844-70.14058648 70.1405873-70.14058731z" fill="#43c7ff"/><path d="m355.2151586 361.02801531h315.63264083c146.47004873 0 265.0901586 118.62010987 265.0901586 265.09015943s-118.62010986 265.0901586-265.0901586 265.0901586h-315.63264083c-146.47004873 0-265.0901586-118.62010987-265.0901586-265.0901586s118.62010987-265.09015943 265.0901586-265.09015943z" fill="#27a9e0"/><path d="m512.61888732 47.45833334h1.03147944c38.37102677 0 69.52169916 31.15067239 69.52169916 69.72799522 0 38.37102676-31.15067239 69.72799522-69.72799521 69.72799519h-1.03147943c-38.37102676 0-69.72799522-31.15067239-69.72799439-69.7279952.20629523-38.57732282 31.35696763-69.72799521 69.93429043-69.72799521z" fill="#ace6ff"/><g fill="#fff"><path d="m322.20782422 724.10870011v-58.79431523h-58.79431604c-21.66106394 0-39.19621014-17.53514703-39.19621015-39.19621014s17.53514703-39.19621014 39.19621015-39.19621096h58.79431604v-58.79431522c0-21.66106394 17.53514703-39.19621014 39.19621014-39.19621015s39.19621014 17.53514703 39.19621015 39.19621015v58.79431522h58.79431521c21.66106394 0 39.19621014 17.53514703 39.19621015 39.19621096s-17.53514703 39.19621014-39.19621015 39.19621014h-58.79431521v58.79431523c0 21.66106394-17.53514703 39.19621014-39.19621014 39.19621013s-39.19621014-17.53514703-39.19621015-39.19621013z"/><path d="m624.43123493 703.06652433a60.23838593 58.17542788 90 1 0 116.35085577-.00000001 60.23838593 58.17542788 90 1 0 -116.35085577 0z"/><path d="m682.19407071 546.69427502a59.82579465 57.76283579 0 1 0 119.6515893 0 59.82579465 57.76283579 0 1 0 -119.6515893 0z"/></g></svg>